<mxfile host="app.diagrams.net" modified="2021-04-13T07:41:51.517Z" agent="5.0 (X11)" etag="UaNNCPrHX7ssBt4a7AFl" version="14.5.10" type="github">
  <diagram name="Page-1" id="efa7a0a1-bf9b-a30e-e6df-94a7791c09e9">
    <mxGraphModel dx="1366" dy="804" grid="1" gridSize="10" guides="1" tooltips="1" connect="1" arrows="1" fold="1" page="1" pageScale="1" pageWidth="826" pageHeight="1169" background="#ffffff" math="0" shadow="0">
      <root>
        <mxCell id="0" />
        <mxCell id="1" parent="0" />
        <mxCell id="zFWSbVlcI5qrdmy_Arc6-117" value="" style="edgeStyle=orthogonalEdgeStyle;rounded=0;orthogonalLoop=1;jettySize=auto;html=1;" edge="1" parent="1" source="zFWSbVlcI5qrdmy_Arc6-114" target="zFWSbVlcI5qrdmy_Arc6-116">
          <mxGeometry relative="1" as="geometry" />
        </mxCell>
        <mxCell id="zFWSbVlcI5qrdmy_Arc6-114" value="&lt;div&gt;login&lt;/div&gt;" style="rounded=0;whiteSpace=wrap;html=1;" vertex="1" parent="1">
          <mxGeometry x="60" y="460" width="120" height="60" as="geometry" />
        </mxCell>
        <mxCell id="zFWSbVlcI5qrdmy_Arc6-118" style="edgeStyle=orthogonalEdgeStyle;rounded=0;orthogonalLoop=1;jettySize=auto;html=1;" edge="1" parent="1" source="zFWSbVlcI5qrdmy_Arc6-115" target="zFWSbVlcI5qrdmy_Arc6-114">
          <mxGeometry relative="1" as="geometry" />
        </mxCell>
        <mxCell id="zFWSbVlcI5qrdmy_Arc6-115" value="&lt;div&gt;Registration&lt;/div&gt;" style="rounded=0;whiteSpace=wrap;html=1;" vertex="1" parent="1">
          <mxGeometry x="60" y="20" width="120" height="60" as="geometry" />
        </mxCell>
        <mxCell id="zFWSbVlcI5qrdmy_Arc6-120" value="" style="edgeStyle=orthogonalEdgeStyle;rounded=0;orthogonalLoop=1;jettySize=auto;html=1;" edge="1" parent="1" source="zFWSbVlcI5qrdmy_Arc6-116" target="zFWSbVlcI5qrdmy_Arc6-119">
          <mxGeometry relative="1" as="geometry">
            <mxPoint x="190" y="830" as="targetPoint" />
          </mxGeometry>
        </mxCell>
        <mxCell id="zFWSbVlcI5qrdmy_Arc6-116" value="Department" style="rounded=0;whiteSpace=wrap;html=1;" vertex="1" parent="1">
          <mxGeometry x="60" y="690" width="120" height="60" as="geometry" />
        </mxCell>
        <mxCell id="zFWSbVlcI5qrdmy_Arc6-122" value="" style="edgeStyle=orthogonalEdgeStyle;rounded=0;orthogonalLoop=1;jettySize=auto;html=1;" edge="1" parent="1" source="zFWSbVlcI5qrdmy_Arc6-119" target="zFWSbVlcI5qrdmy_Arc6-121">
          <mxGeometry relative="1" as="geometry" />
        </mxCell>
        <mxCell id="zFWSbVlcI5qrdmy_Arc6-119" value="&lt;div&gt;Doctors&lt;/div&gt;" style="rounded=0;whiteSpace=wrap;html=1;" vertex="1" parent="1">
          <mxGeometry x="60" y="870" width="120" height="60" as="geometry" />
        </mxCell>
        <mxCell id="zFWSbVlcI5qrdmy_Arc6-124" value="" style="edgeStyle=orthogonalEdgeStyle;rounded=0;orthogonalLoop=1;jettySize=auto;html=1;" edge="1" parent="1" source="zFWSbVlcI5qrdmy_Arc6-121" target="zFWSbVlcI5qrdmy_Arc6-123">
          <mxGeometry relative="1" as="geometry" />
        </mxCell>
        <mxCell id="zFWSbVlcI5qrdmy_Arc6-121" value="&lt;div&gt;Date&lt;/div&gt;" style="rounded=0;whiteSpace=wrap;html=1;" vertex="1" parent="1">
          <mxGeometry x="60" y="1100" width="120" height="60" as="geometry" />
        </mxCell>
        <mxCell id="zFWSbVlcI5qrdmy_Arc6-123" value="&lt;div&gt;5 slots&lt;/div&gt;" style="rounded=0;whiteSpace=wrap;html=1;" vertex="1" parent="1">
          <mxGeometry x="60" y="1440" width="120" height="60" as="geometry" />
        </mxCell>
        <mxCell id="zFWSbVlcI5qrdmy_Arc6-125" value="" style="whiteSpace=wrap;html=1;aspect=fixed;" vertex="1" parent="1">
          <mxGeometry x="250" y="80" width="350" height="350" as="geometry" />
        </mxCell>
        <mxCell id="zFWSbVlcI5qrdmy_Arc6-126" value="&lt;div&gt;Name&lt;/div&gt;" style="text;html=1;strokeColor=none;fillColor=none;align=center;verticalAlign=middle;whiteSpace=wrap;rounded=0;" vertex="1" parent="1">
          <mxGeometry x="270" y="130" width="40" height="20" as="geometry" />
        </mxCell>
        <mxCell id="zFWSbVlcI5qrdmy_Arc6-128" value="Phone" style="text;html=1;strokeColor=none;fillColor=none;align=center;verticalAlign=middle;whiteSpace=wrap;rounded=0;" vertex="1" parent="1">
          <mxGeometry x="270" y="170" width="40" height="20" as="geometry" />
        </mxCell>
        <mxCell id="zFWSbVlcI5qrdmy_Arc6-129" value="Gender" style="text;html=1;strokeColor=none;fillColor=none;align=center;verticalAlign=middle;whiteSpace=wrap;rounded=0;" vertex="1" parent="1">
          <mxGeometry x="270" y="210" width="40" height="20" as="geometry" />
        </mxCell>
        <mxCell id="zFWSbVlcI5qrdmy_Arc6-131" value="&lt;div&gt;Nationality&lt;/div&gt;" style="text;html=1;strokeColor=none;fillColor=none;align=center;verticalAlign=middle;whiteSpace=wrap;rounded=0;" vertex="1" parent="1">
          <mxGeometry x="280" y="250" width="40" height="20" as="geometry" />
        </mxCell>
        <mxCell id="zFWSbVlcI5qrdmy_Arc6-132" value="QID" style="text;html=1;strokeColor=none;fillColor=none;align=center;verticalAlign=middle;whiteSpace=wrap;rounded=0;" vertex="1" parent="1">
          <mxGeometry x="265" y="290" width="40" height="20" as="geometry" />
        </mxCell>
        <mxCell id="zFWSbVlcI5qrdmy_Arc6-133" value="Date of Birth" style="text;html=1;strokeColor=none;fillColor=none;align=center;verticalAlign=middle;whiteSpace=wrap;rounded=0;" vertex="1" parent="1">
          <mxGeometry x="255" y="330" width="90" height="20" as="geometry" />
        </mxCell>
        <mxCell id="zFWSbVlcI5qrdmy_Arc6-135" value="" style="rounded=0;whiteSpace=wrap;html=1;" vertex="1" parent="1">
          <mxGeometry x="255" y="460" width="345" height="190" as="geometry" />
        </mxCell>
        <mxCell id="zFWSbVlcI5qrdmy_Arc6-136" value="Phone / QID" style="text;html=1;strokeColor=none;fillColor=none;align=center;verticalAlign=middle;whiteSpace=wrap;rounded=0;" vertex="1" parent="1">
          <mxGeometry x="255" y="490" width="100" height="20" as="geometry" />
        </mxCell>
        <mxCell id="zFWSbVlcI5qrdmy_Arc6-137" value="OTP" style="text;html=1;strokeColor=none;fillColor=none;align=center;verticalAlign=middle;whiteSpace=wrap;rounded=0;" vertex="1" parent="1">
          <mxGeometry x="265" y="520" width="40" height="20" as="geometry" />
        </mxCell>
        <mxCell id="zFWSbVlcI5qrdmy_Arc6-139" value="Email" style="text;html=1;strokeColor=none;fillColor=none;align=center;verticalAlign=middle;whiteSpace=wrap;rounded=0;" vertex="1" parent="1">
          <mxGeometry x="255" y="370" width="90" height="20" as="geometry" />
        </mxCell>
        <mxCell id="zFWSbVlcI5qrdmy_Arc6-140" value="" style="rounded=0;whiteSpace=wrap;html=1;" vertex="1" parent="1">
          <mxGeometry x="245" y="690" width="355" height="140" as="geometry" />
        </mxCell>
        <mxCell id="zFWSbVlcI5qrdmy_Arc6-141" value="Department" style="text;html=1;strokeColor=none;fillColor=none;align=center;verticalAlign=middle;whiteSpace=wrap;rounded=0;" vertex="1" parent="1">
          <mxGeometry x="280" y="730" width="110" height="20" as="geometry" />
        </mxCell>
        <mxCell id="zFWSbVlcI5qrdmy_Arc6-142" value="" style="rounded=0;whiteSpace=wrap;html=1;" vertex="1" parent="1">
          <mxGeometry x="230" y="870" width="370" height="140" as="geometry" />
        </mxCell>
        <mxCell id="zFWSbVlcI5qrdmy_Arc6-143" value="Doctors [Filtered]" style="text;html=1;strokeColor=none;fillColor=none;align=center;verticalAlign=middle;whiteSpace=wrap;rounded=0;" vertex="1" parent="1">
          <mxGeometry x="265" y="910" width="110" height="20" as="geometry" />
        </mxCell>
        <mxCell id="zFWSbVlcI5qrdmy_Arc6-144" value="" style="rounded=0;whiteSpace=wrap;html=1;" vertex="1" parent="1">
          <mxGeometry x="230" y="1100" width="370" height="250" as="geometry" />
        </mxCell>
        <mxCell id="zFWSbVlcI5qrdmy_Arc6-145" value="Date [Filtered]" style="text;html=1;strokeColor=none;fillColor=none;align=center;verticalAlign=middle;whiteSpace=wrap;rounded=0;" vertex="1" parent="1">
          <mxGeometry x="270" y="1140" width="110" height="20" as="geometry" />
        </mxCell>
        <mxCell id="zFWSbVlcI5qrdmy_Arc6-146" value="" style="rounded=0;whiteSpace=wrap;html=1;" vertex="1" parent="1">
          <mxGeometry x="230" y="1440" width="370" height="210" as="geometry" />
        </mxCell>
        <mxCell id="zFWSbVlcI5qrdmy_Arc6-147" value="Time 1" style="rounded=0;whiteSpace=wrap;html=1;" vertex="1" parent="1">
          <mxGeometry x="255" y="1470" width="75" height="40" as="geometry" />
        </mxCell>
        <mxCell id="zFWSbVlcI5qrdmy_Arc6-148" value="Time 4" style="rounded=0;whiteSpace=wrap;html=1;" vertex="1" parent="1">
          <mxGeometry x="252.5" y="1540" width="75" height="40" as="geometry" />
        </mxCell>
        <mxCell id="zFWSbVlcI5qrdmy_Arc6-149" value="Time 5" style="rounded=0;whiteSpace=wrap;html=1;" vertex="1" parent="1">
          <mxGeometry x="375" y="1540" width="75" height="40" as="geometry" />
        </mxCell>
        <mxCell id="zFWSbVlcI5qrdmy_Arc6-150" value="Time 2" style="rounded=0;whiteSpace=wrap;html=1;" vertex="1" parent="1">
          <mxGeometry x="375" y="1470" width="75" height="40" as="geometry" />
        </mxCell>
        <mxCell id="zFWSbVlcI5qrdmy_Arc6-151" value="&lt;div&gt;Time 3&lt;/div&gt;" style="rounded=0;whiteSpace=wrap;html=1;" vertex="1" parent="1">
          <mxGeometry x="480" y="1470" width="75" height="40" as="geometry" />
        </mxCell>
        <mxCell id="zFWSbVlcI5qrdmy_Arc6-152" value="Time 6" style="rounded=0;whiteSpace=wrap;html=1;" vertex="1" parent="1">
          <mxGeometry x="480" y="1540" width="75" height="40" as="geometry" />
        </mxCell>
      </root>
    </mxGraphModel>
  </diagram>
</mxfile>
